inDegrees=no
num_controls=7
num_derivatives=13
num_iterations=167
num_multipliers=7
num_parameters=0
num_slacks=7
num_states=26
objective=0.546512
objective_accelerations=0.057367
objective_balance=0.004885
objective_effort=0.045687
objective_height=0.428733
objective_ligament=0.009840
solver_duration=1830.113128
status=Solve_Succeeded
success=true
DataType=double
version=3
OpenSimVersion=4.5
endheader
time	/jointset/ground_pelvis/pelvis_tilt/value	/jointset/ground_pelvis/pelvis_tx/value	/jointset/ground_pelvis/pelvis_ty/value	/jointset/hip_r/hip_flexion_r/value	/jointset/hip_r/hip_adduction_r/value	/jointset/hip_r/hip_rotation_r/value	/jointset/back/lumbar_extension/value	/jointset/patellofemoral_r/patellar_flexion_r/value	/jointset/knee_r/knee_flexion_r/value	/jointset/knee_r/knee_adduction_r/value	/jointset/knee_r/knee_rotation_r/value	/jointset/ankle_r/ankle_angle_r/value	/jointset/subtalar_r/subtalar_angle_r/value	/jointset/ground_pelvis/pelvis_tilt/speed	/jointset/ground_pelvis/pelvis_tx/speed	/jointset/ground_pelvis/pelvis_ty/speed	/jointset/hip_r/hip_flexion_r/speed	/jointset/hip_r/hip_adduction_r/speed	/jointset/hip_r/hip_rotation_r/speed	/jointset/back/lumbar_extension/speed	/jointset/patellofemoral_r/patellar_flexion_r/speed	/jointset/knee_r/knee_flexion_r/speed	/jointset/knee_r/knee_adduction_r/speed	/jointset/knee_r/knee_rotation_r/speed	/jointset/ankle_r/ankle_angle_r/speed	/jointset/subtalar_r/subtalar_angle_r/speed	/forceset/tau_hip_flexion_r	/forceset/tau_hip_adduction_r	/forceset/tau_hip_rotation_r	/forceset/tau_knee_flexion_r	/forceset/tau_ankle_angle_r	/forceset/tau_subtalar_angle_r	/forceset/tau_lumbar_extension	lambda_cid13_p0	lambda_cid14_p0	lambda_cid14_p1	lambda_cid14_p2	lambda_cid14_p3	lambda_cid14_p4	lambda_cid14_p5	/jointset/ground_pelvis/pelvis_tilt/accel	/jointset/ground_pelvis/pelvis_tx/accel	/jointset/ground_pelvis/pelvis_ty/accel	/jointset/hip_r/hip_flexion_r/accel	/jointset/hip_r/hip_adduction_r/accel	/jointset/hip_r/hip_rotation_r/accel	/jointset/back/lumbar_extension/accel	/jointset/patellofemoral_r/patellar_flexion_r/accel	/jointset/knee_r/knee_flexion_r/accel	/jointset/knee_r/knee_adduction_r/accel	/jointset/knee_r/knee_rotation_r/accel	/jointset/ankle_r/ankle_angle_r/accel	/jointset/subtalar_r/subtalar_angle_r/accel	gamma_cid13_p0	gamma_cid14_p0	gamma_cid14_p1	gamma_cid14_p2	gamma_cid14_p3	gamma_cid14_p4	gamma_cid14_p5
1.5	-0.1948930735070889	0.02621539153721864	0.8262520663084034	0.9072819737548425	-0.2431418113012778	-0.09014923136137123	-0.3001880541300138	0.8123462352363046	0.8123462352360503	0.06145507385805109	0.1744969652486535	0.2706064109186419	0.04032304279920535	0.4542908177655504	0.1859984595482595	0.514693692567437	-2.10166847640956	0.0375442758947242	-0.4614871398387898	0.6964458174784154	-2.180468256916758	-2.180468256916759	0.1689734247576897	0.0008051233402410827	-0.627016355281467	-0.112737428140198	-0.1229299112184836	-0.01722348930171069	0.0146310865343782	-0.3406923376962354	0.07000749863193789	-0.009671077839108607	0.1609270249295353	-24.60148207080779	-18.28680389950897	-3.845107246708753	-2.989884648485105	0.4293301949472066	-648.3857921667064	56.79371729832275	0.3206587342201104	0.4888681892364017	-0.6449767920744033	-1.048300886910585	0.1650806218969135	-0.2536564223932734	1.553747730761799	-1.337353268126958	-1.337353268127055	0.6218648953079774	-0.04331953954532097	-0.6992578634456932	0.09034050846153356	1.637842715949933e-07	9.579748613829906e-08	-1.679520521279069e-06	7.630035098453521e-07	1.282247397144693e-07	2.203130758890555e-07	-1.085667064975962e-06
1.51	-0.1903345647777345	0.02809959099785754	0.8313656655217597	0.8862151614239817	-0.242758949588489	-0.09477735321607451	-0.2931471478935084	0.7904774943813162	0.7904774943810144	0.06317696850674298	0.1745044869626599	0.2643019309246869	0.03919919106126296	0.4573383823673963	0.1908136067129428	0.5079150732521894	-2.1114055400582	0.03902291425526168	-0.464121263067525	0.7116371713410604	-2.192972634293484	-2.192972634293455	0.1754016411284163	0.0007003920439398118	-0.6337821455725794	-0.1120183016774298	-0.1156447566971399	-0.01927129250490567	0.01408127719541418	-0.3366475566546664	0.07322313869840516	-0.01049790345285483	0.1543963401520505	-25.96641092707996	-17.02293165052646	-3.847332304209791	-3.144383790047201	0.01135910592381353	-643.4289384570136	56.84422232446185	0.2859338221655415	0.4736900790884086	-0.7109151873443257	-0.8931279079673756	0.1384616059575139	-0.2656439182495306	1.487090441826477	-1.160923877392208	-1.160923877387761	0.6524853176234903	0.006264842135114463	-0.6505736998961511	0.06470568494059621	1.740677867459813e-07	1.048701474348004e-07	-1.768851612158789e-06	8.197277397933265e-07	1.293273404783553e-07	2.426839132126609e-07	-1.149945893237747e-06
1.52	-0.1857477547025614	0.03003111234994413	0.8364081564047448	0.8650596346958094	-0.2423614602595292	-0.09943128703209275	-0.2859572758728146	0.7684929209715713	0.7684929209712219	0.0649629823810752	0.1745110243170654	0.2579327262102303	0.03808293198189951	0.4599510869291894	0.1954628378377967	0.5004720264931598	-2.119411355871903	0.04046979912881305	-0.4666495321016957	0.7262389743161287	-2.203634767868084	-2.203634767868026	0.181797269885882	0.0006082514199441775	-0.6399612993817785	-0.1112188964244165	-0.1083596021757984	-0.02131909570810097	0.01353146785645793	-0.3326027756130983	0.07643877876487216	-0.01132472906660172	0.1478656553745639	-27.31380090627591	-15.76443198285582	-3.847889534966078	-3.302128723696289	-0.4084335475999148	-638.5588090407026	56.95863402502582	0.2336867262095812	0.4556849812705101	-0.7778622808307992	-0.70205131992296	0.1587299244996965	-0.2324855834803635	1.435837553246468	-0.9689045077019164	-0.9689045077019284	0.6153473726558114	-0.04080140508420967	-0.5819305670631134	0.1063962665105694	1.846260109731957e-07	1.139779435533391e-07	-1.86465805581017e-06	8.75297119905763e-07	1.304527664417662e-07	2.679662467290464e-07	-1.216750020573661e-06
1.53	-0.1811369630040156	0.03200824814419257	0.841372997885399	0.8438326166882225	-0.2419497326260646	-0.1041099649543488	-0.278624502839577	0.7464109231598163	0.7464109231598886	0.06681295725167462	0.1745167390306775	0.2515046696888985	0.03697498494832707	0.462131407069114	0.1999312696164412	0.4923936886382499	-2.125697053266976	0.04186918024998156	-0.4690595771724128	0.7402071398658489	-2.21244841492513	-2.212448414925138	0.1881972859199785	0.0005285042971391427	-0.6455463477061528	-0.1103567299084244	-0.101056203184496	-0.0235148868814993	0.0129515966449264	-0.3287792099123474	0.07979315529206085	-0.01225345380961522	0.1413331154606877	-28.64123952800477	-14.48547250743285	-3.8950208472969	-3.445706966894673	-0.8112269107627096	-633.9913178733538	57.04130854228395	0.1988383109546387	0.4374910103480543	-0.8381443811165123	-0.5475351986199253	0.1295298874743828	-0.2410142025404672	1.361032186051357	-0.7901781279829215	-0.7901781279929224	0.6520068316008761	0.007672431341148919	-0.5311978879726991	0.07798837704734826	1.954761135939005e-07	1.231230704202926e-07	-1.967344561781442e-06	9.296394720679402e-07	1.316024441796723e-07	2.96342044950261e-07	-1.286237278175834e-06
1.54	-0.1765066413734558	0.03402908200306481	0.846253991018845	0.8225516004568211	-0.241524213645078	-0.1088118933740471	-0.2711553029247987	0.7242502722128359	0.7242502722133282	0.06872686790517882	0.1745215030325048	0.2450238814997532	0.03587603188649534	0.4638570733318667	0.2042024507625583	0.4837023570515168	-2.130211000634868	0.04322806863310799	-0.4712996315900534	0.7535243506242302	-2.219365394913259	-2.219365394913333	0.1945844264666469	0.0004181090631262309	-0.6505076329444518	-0.1094201020762795	-0.09375280419319473	-0.02571067805489754	0.01237172543339089	-0.324955644211597	0.08314753181924944	-0.01318217855262856	0.1348005755468105	-29.94725972498999	-13.2101694267501	-3.939972165503399	-3.592854579877499	-1.221838142323957	-629.4871133777498	57.1897072676153	0.1427559507752414	0.4162348547650304	-0.9004610271954488	-0.3477013144866643	0.1506313768912883	-0.1984874528650448	1.305646594978711	-0.5895710939187104	-0.5895710939187325	0.6127722751701791	-0.04693102732580098	-0.4571779498480733	0.1212885297411286	2.057013099484289e-07	1.285156653161275e-07	-2.076949459189969e-06	9.689157210451603e-07	1.366134283043221e-07	3.18204474793767e-07	-1.355459693253131e-06
